<?xml version="1.0"?>
<svg xmlns="http://www.w3.org/2000/svg" id="Solid" viewBox="0 0 512 512" ><path d="M376,368H478.629A24.042,24.042,0,0,1,456,384H56a24.042,24.042,0,0,1-22.629-16H376Zm-88-72a55.981,55.981,0,0,0,56,56h32a56.063,56.063,0,0,0,56-56V240H288Zm176-40H448v40a72.383,72.383,0,0,1-.455,8H464a16.019,16.019,0,0,0,16-16V272A16.019,16.019,0,0,0,464,256ZM88,160c0-17.645,10.767-32,24-32H304c13.233,0,24,14.355,24,32s-10.767,32-24,32a8,8,0,0,0-8,8v24H280a8,8,0,0,0-8,8v64a71.668,71.668,0,0,0,24,53.672V352H120V200a8,8,0,0,0-8-8C98.767,192,88,177.645,88,160Zm165.657,98.343a8,8,0,0,0-11.314,0l-32,32a8,8,0,0,0,11.314,11.314l32-32A8,8,0,0,0,253.657,258.343Zm-11.314-64-80,80a8,8,0,0,0,11.314,11.314l80-80a8,8,0,0,0-11.314-11.314Zm-88,35.314a8,8,0,0,0,11.314,0l32-32a8,8,0,0,0-11.314-11.314l-32,32A8,8,0,0,0,154.343,229.657ZM64,200V352h40V207.036C85.765,202.575,72,183.18,72,160a53.532,53.532,0,0,1,10.218-32H56c-13.233,0-24,14.355-24,32s10.767,32,24,32A8,8,0,0,1,64,200Zm296,0a8,8,0,0,0,16,0,5.888,5.888,0,0,1,1.26-3.884,22.5,22.5,0,0,0,0-24.233A5.888,5.888,0,0,1,376,168c0-1.784.292-2.27,1.26-3.883A21.434,21.434,0,0,0,380.8,152a8,8,0,1,0-16,0,5.883,5.883,0,0,1-1.26,3.882,22.5,22.5,0,0,0,0,24.233c.968,1.614,1.26,2.1,1.26,3.884a5.888,5.888,0,0,1-1.26,3.884A21.438,21.438,0,0,0,360,200Zm51.2,0a8,8,0,1,0,16,0,5.888,5.888,0,0,1,1.26-3.884,22.5,22.5,0,0,0,0-24.233A5.888,5.888,0,0,1,427.2,168c0-1.784.292-2.27,1.26-3.883A21.434,21.434,0,0,0,432,152a8,8,0,0,0-16,0,5.883,5.883,0,0,1-1.26,3.882,22.5,22.5,0,0,0,0,24.233c.968,1.614,1.26,2.1,1.26,3.884a5.888,5.888,0,0,1-1.26,3.884A21.438,21.438,0,0,0,411.2,200Z"/></svg>
